#!OML:ASF H:\Dans Jumps\Project 1\Capture day 1\Session 1\subject.ASF
:FULLY-SPECIFIED
:DEGREES
557
root 0.10112 17.8584 -5.17875 16.9428 -2.05662 -1.89785
lowerback 2.9788 0.236985 -1.34478
upperback 5.60469 0.263972 1.42573
thorax 4.0966 0.0411113 2.22695
lowerneck -13.1488 0.476221 -0.239826
upperneck 26.1923 0.859945 -0.517979
head 10.5645 0.302635 -0.0346255
rclavicle 4.94477e-015 -1.0635e-014
rhumerus -35.7826 -2.22318 -82.3516
rradius 41.058
rwrist 19.0986
rhand -26.0606 -29.2753
rfingers 7.12502
rthumb 0.48725 -59.2545
lclavicle 4.94477e-015 -1.0635e-014
lhumerus -38.0717 -10.4229 90.2698
lradius 45.0308
lwrist 27.7104
lhand -28.0915 -6.18064
lfingers 7.12502
lthumb -1.4743 23.794
rfemur -23.5774 -4.58259 21.8507
rtibia 20.6325
rfoot -12.5482 -1.22842
rtoes 20.1272
lfemur -21.5243 7.43696 -18.7814
ltibia 18.1034
lfoot -10.6405 4.68517
ltoes 8.70625
558
root 0.101233 17.8587 -5.18084 16.8922 -2.03517 -1.89761
lowerback 2.95469 0.226543 -1.33125
upperback 5.60204 0.250114 1.43289
thorax 4.10813 0.0345087 2.22679
lowerneck -13.0893 0.473301 -0.279789
upperneck 26.1609 0.8649 -0.517061
head 10.5411 0.301393 -0.0270113
rclavicle 2.5345e-015 1.06847e-014
rhumerus -35.7809 -2.29378 -82.3394
rradius 41.0268
rwrist 19.037
rhand -25.9997 -29.2466
rfingers 7.12502
rthumb 0.546007 -59.2256
lclavicle 2.5345e-015 1.06847e-014
lhumerus -37.9083 -10.3025 90.2362
lradius 44.684
lwrist 27.5482
lhand -28.0886 -6.17925
lfingers 7.12502
lthumb -1.47148 23.7954
rfemur -23.5158 -4.59133 21.849
rtibia 20.6144
rfoot -12.5424 -1.24405
rtoes 20.1239
lfemur -21.4666 7.45771 -18.7781
ltibia 18.08
lfoot -10.64 4.63472
ltoes 8.72509
559
root 0.101274 17.859 -5.18275 16.8394 -2.00817 -1.89971
lowerback 2.92903 0.216363 -1.31162
upperback 5.60135 0.236655 1.43875
thorax 4.12255 0.0283423 2.22188
lowerneck -13.0382 0.46637 -0.31723
upperneck 26.1336 0.862106 -0.510562
head 10.5208 0.297505 -0.0188036
rclavicle 3.97569e-016 2.5345e-015
rhumerus -35.7767 -2.35583 -82.3367
rradius 40.9954
rwrist 18.9706
rhand -25.9238 -29.2273
rfingers 7.12502
rthumb 0.619302 -59.2062
lclavicle 3.97569e-016 2.5345e-015
lhumerus -37.7307 -10.1835 90.1983
lradius 44.3429
lwrist 27.4299
lhand -28.0833 -6.00331
lfingers 7.12502
lthumb -1.46637 23.9714
rfemur -23.449 -4.59874 21.8499
rtibia 20.594
rfoot -12.5375 -1.26488
rtoes 20.133
lfemur -21.4089 7.46821 -18.7691
ltibia 18.0622
lfoot -10.6394 4.58926
ltoes 8.75367
560
root 0.101273 17.8593 -5.18449 16.7851 -1.976 -1.9021
lowerback 2.90109 0.205537 -1.2895
upperback 5.60221 0.222347 1.44429
thorax 4.13992 0.0218246 2.21525
lowerneck -13.0102 0.461004 -0.342686
upperneck 26.1243 0.860511 -0.510165
head 10.5118 0.294483 -0.0145916
rclavicle -2.48481e-016 -1.70458e-014
rhumerus -35.7659 -2.40739 -82.3409
rradius 40.9582
rwrist 18.9108
rhand -25.8274 -29.2087
rfingers 7.12502
rthumb 0.712421 -59.1872
lclavicle -2.48481e-016 -1.70458e-014
lhumerus -37.5397 -10.0622 90.1578
lradius 44.0078
lwrist 27.3368
lhand -28.0858 -5.82086
lfingers 7.12502
lthumb -1.46875 24.1538
rfemur -23.3795 -4.60776 21.8516
rtibia 20.5736
rfoot -12.5345 -1.28955
rtoes 20.1416
lfemur -21.3511 7.46971 -18.7578
ltibia 18.0482
lfoot -10.6388 4.55073
ltoes 8.78718
561
root 0.101273 17.8596 -5.18608 16.7326 -1.94178 -1.9044
lowerback 2.86856 0.193846 -1.26731
upperback 5.60295 0.206915 1.4496
thorax 4.15981 0.0147365 2.20834
lowerneck -12.991 0.456516 -0.36091
upperneck 26.1195 0.859648 -0.514131
head 10.5062 0.291944 -0.0130497
rclavicle 6.13748e-015 -1.28216e-014
rhumerus -35.7501 -2.44517 -82.3514
rradius 40.9163
rwrist 18.8708
rhand -25.7055 -29.1881
rfingers 7.12502
rthumb 0.830176 -59.1662
lclavicle 6.13748e-015 -1.28216e-014
lhumerus -37.3405 -9.91644 90.108
lradius 43.6851
lwrist 27.2407
lhand -28.0781 -5.61765
lfingers 7.12502
lthumb -1.46136 24.3571
rfemur -23.3125 -4.61957 21.854
rtibia 20.5547
rfoot -12.5323 -1.31339
rtoes 20.1513
lfemur -21.2964 7.46079 -18.7453
ltibia 18.0371
lfoot -10.6367 4.52441
ltoes 8.82589
562
root 0.101289 17.8597 -5.18745 16.6817 -1.90753 -1.9045
lowerback 2.83015 0.181373 -1.24823
upperback 5.60496 0.190472 1.45424
thorax 4.1844 0.00697916 2.2025
lowerneck -12.9853 0.45358 -0.362511
upperneck 26.1188 0.861293 -0.533784
head 10.505 0.290278 -0.0195783
rclavicle 5.73991e-015 7.95139e-016
rhumerus -35.7249 -2.46698 -82.368
rradius 40.865
rwrist 18.8559
rhand -25.5712 -29.1557
rfingers 7.12502
rthumb 0.959876 -59.1333
lclavicle 5.73991e-015 7.95139e-016
lhumerus -37.1373 -9.74854 90.0528
lradius 43.3715
lwrist 27.1367
lhand -28.0893 -5.50954
lfingers 7.12502
lthumb -1.47216 24.4651
rfemur -23.2491 -4.63528 21.8547
rtibia 20.5398
rfoot -12.5323 -1.33521
rtoes 20.1545
lfemur -21.2427 7.44487 -18.7349
ltibia 18.0266
lfoot -10.6343 4.50826
ltoes 8.86587
563
root 0.101371 17.8598 -5.18853 16.6313 -1.87245 -1.90532
lowerback 2.7882 0.167685 -1.22948
upperback 5.6069 0.172396 1.45943
thorax 4.211 -0.00163236 2.19741
lowerneck -12.9921 0.453688 -0.353211
upperneck 26.1255 0.867304 -0.563012
head 10.509 0.290467 -0.0307905
rclavicle -6.60959e-015 -8.44835e-016
rhumerus -35.6961 -2.47377 -82.3895
rradius 40.8091
rwrist 18.8766
rhand -25.4303 -29.1083
rfingers 7.12502
rthumb 1.09596 -59.0853
lclavicle -6.60959e-015 -8.44835e-016
lhumerus -36.943 -9.55961 89.9938
lradius 43.0725
lwrist 27.0182
lhand -28.1267 -5.57895
lfingers 7.12502
lthumb -1.50828 24.3955
rfemur -23.188 -4.65645 21.8571
rtibia 20.5294
rfoot -12.5338 -1.35258
rtoes 20.1511
lfemur -21.188 7.42496 -18.7236
ltibia 18.0156
lfoot -10.6313 4.49921
ltoes 8.89633
564
root 0.101532 17.8597 -5.18947 16.5856 -1.83892 -1.90418
lowerback 2.74035 0.152919 -1.21416
upperback 5.608 0.152893 1.46493
thorax 4.24012 -0.0111182 2.19455
lowerneck -13.0104 0.457318 -0.341403
upperneck 26.1385 0.878692 -0.595559
head 10.5177 0.292886 -0.0429015
rclavicle -4.87022e-015 6.36111e-015
rhumerus -35.6615 -2.46423 -82.4144
rradius 40.7523
rwrist 18.9274
rhand -25.2793 -29.052
rfingers 7.12502
rthumb 1.24179 -59.0282
lclavicle -4.87022e-015 6.36111e-015
lhumerus -36.7612 -9.36635 89.9372
lradius 42.7931
lwrist 26.893
lhand -28.1894 -5.73486
lfingers 7.12502
lthumb -1.56887 24.2391
rfemur -23.1343 -4.67776 21.8574
rtibia 20.5237
rfoot -12.537 -1.36827
rtoes 20.1385
lfemur -21.1376 7.403 -18.7154
ltibia 18.0037
lfoot -10.6271 4.4957
ltoes 8.91796
565
root 0.101695 17.8595 -5.19006 16.5373 -1.80867 -1.90288
lowerback 2.69226 0.138609 -1.20058
upperback 5.61009 0.133977 1.47013
thorax 4.27038 -0.0203933 2.19234
lowerneck -13.0452 0.461321 -0.32651
upperneck 26.163 0.890767 -0.630639
head 10.5338 0.29551 -0.0563142
rclavicle -3.3048e-015 -1.58531e-014
rhumerus -35.6242 -2.44103 -82.4448
rradius 40.6939
rwrist 19.0014
rhand -25.1457 -28.9746
rfingers 7.12502
rthumb 1.37084 -58.95
lclavicle -3.3048e-015 -1.58531e-014
lhumerus -36.6021 -9.1735 89.8829
lradius 42.5418
lwrist 26.7819
lhand -28.2588 -5.99125
lfingers 7.12502
lthumb -1.63584 23.9822
rfemur -23.0781 -4.69544 21.8564
rtibia 20.5211
rfoot -12.5406 -1.38454
rtoes 20.124
lfemur -21.0822 7.38289 -18.7074
ltibia 17.9918
lfoot -10.624 4.49444
ltoes 8.92457
566
root 0.101916 17.8592 -5.1905 16.4909 -1.78178 -1.89992
lowerback 2.6422 0.124963 -1.18932
upperback 5.61036 0.115942 1.47543
thorax 4.29982 -0.0293035 2.19152
lowerneck -13.0748 0.46345 -0.325007
upperneck 26.1802 0.900146 -0.653798
head 10.5461 0.297041 -0.0635521
rclavicle 2.73329e-015 -4.96962e-015
rhumerus -35.5872 -2.40879 -82.4763
rradius 40.6408
rwrist 19.09
rhand -25.0069 -28.8951
rfingers 7.12502
rthumb 1.50489 -58.8695
lclavicle 2.73329e-015 -4.96962e-015
lhumerus -36.4661 -8.99082 89.8359
lradius 42.3285
lwrist 26.6796
lhand -28.3404 -6.2381
lfingers 7.12502
lthumb -1.71472 23.7348
rfemur -23.0246 -4.70928 21.8521
rtibia 20.5216
rfoot -12.5459 -1.40004
rtoes 20.1118
lfemur -21.0272 7.36566 -18.7024
ltibia 17.9784
lfoot -10.6214 4.49264
ltoes 8.92367
567
root 0.10211 17.8589 -5.19078 16.4436 -1.76115 -1.89734
lowerback 2.59363 0.112996 -1.17941
upperback 5.60819 0.100136 1.48048
thorax 4.32577 -0.0370995 2.19117
lowerneck -13.1085 0.454764 -0.349552
upperneck 26.2046 0.893922 -0.651727
head 10.5617 0.291832 -0.0593199
rclavicle -1.07841e-014 2.6339e-015
rhumerus -35.5542 -2.37059 -82.5092
rradius 40.5924
rwrist 19.1818
rhand -24.8658 -28.8143
rfingers 7.12502
rthumb 1.64119 -58.7878
lclavicle -1.07841e-014 2.6339e-015
lhumerus -36.3535 -8.82168 89.7955
lradius 42.1686
lwrist 26.6063
lhand -28.4101 -6.33241
lfingers 7.12502
lthumb -1.78202 23.6399
rfemur -22.97 -4.71507 21.8459
rtibia 20.5235
rfoot -12.5524 -1.41569
rtoes 20.1062
lfemur -20.969 7.35208 -18.6972
ltibia 17.9634
lfoot -10.6195 4.49065
ltoes 8.92451
568
root 0.102308 17.8585 -5.1908 16.3953 -1.74745 -1.89115
lowerback 2.54525 0.103156 -1.17335
upperback 5.60303 0.0872465 1.48322
thorax 4.34833 -0.0434908 2.19059
lowerneck -13.1289 0.447093 -0.377661
upperneck 26.221 0.888453 -0.644561
head 10.5715 0.287292 -0.0526003
rclavicle 1.44119e-015 -3.72721e-015
rhumerus -35.5303 -2.32886 -82.5434
rradius 40.5521
rwrist 19.2622
rhand -24.7214 -28.7336
rfingers 7.12502
rthumb 1.78065 -58.706
lclavicle 1.44119e-015 -3.72721e-015
lhumerus -36.26 -8.67774 89.7646
lradius 42.0491
lwrist 26.5611
lhand -28.4825 -6.35695
lfingers 7.12502
lthumb -1.85188 23.6148
rfemur -22.9147 -4.71886 21.8346
rtibia 20.5273
rfoot -12.5608 -1.4286
rtoes 20.1005
lfemur -20.906 7.34391 -18.6969
ltibia 17.9457
lfoot -10.6205 4.48573
ltoes 8.929
569
root 0.102487 17.8582 -5.19055 16.344 -1.73988 -1.88547
lowerback 2.50008 0.0963408 -1.16528
upperback 5.59517 0.0784664 1.4829
thorax 4.36603 -0.0476078 2.18573
lowerneck -13.137 0.440439 -0.411385
upperneck 26.233 0.882054 -0.624177
head 10.5773 0.28339 -0.0403531
rclavicle 2.78299e-015 -2.13694e-015
rhumerus -35.5164 -2.29263 -82.5794
rradius 40.5164
rwrist 19.3302
rhand -24.5795 -28.6574
rfingers 7.12502
rthumb 1.91773 -58.6285
lclavicle 2.78299e-015 -2.13694e-015
lhumerus -36.1796 -8.55943 89.7398
lradius 41.9572
lwrist 26.5333
lhand -28.5718 -6.36486
lfingers 7.12502
lthumb -1.93812 23.6061
rfemur -22.8567 -4.71915 21.8225
rtibia 20.5329
rfoot -12.5714 -1.43944
rtoes 20.0937
lfemur -20.8358 7.33908 -18.6961
ltibia 17.9243
lfoot -10.6231 4.48091
ltoes 8.93529
570
root 0.102596 17.8577 -5.19008 16.2916 -1.73816 -1.87631
lowerback 2.45522 0.0922042 -1.15982
upperback 5.5848 0.0734012 1.47861
thorax 4.38076 -0.0498387 2.17823
lowerneck -13.1315 0.438097 -0.432445
upperneck 26.2353 0.880499 -0.611449
head 10.5769 0.282125 -0.0324202
rclavicle -5.69021e-015 -8.39865e-015
rhumerus -35.5107 -2.26487 -82.6166
rradius 40.4843
rwrist 19.3807
rhand -24.4451 -28.5907
rfingers 7.12502
rthumb 2.04747 -58.5606
lclavicle -5.69021e-015 -8.39865e-015
lhumerus -36.1059 -8.46933 89.7209
lradius 41.8795
lwrist 26.5093
lhand -28.6519 -6.37519
lfingers 7.12502
lthumb -2.01553 23.595
rfemur -22.7987 -4.71582 21.8057
rtibia 20.5411
rfoot -12.5846 -1.45088
rtoes 20.0875
lfemur -20.7605 7.33917 -18.6996
ltibia 17.8986
lfoot -10.6281 4.47352
ltoes 8.94878
